PathFileType	4	(X/Y/Z)	C:\Users\JDoe\SprintMotion.trc
DataRate	CameraRate	NumFrames	NumMarkers	Units	OrigDataRate	OrigDataStartFrame	OrigNumFrames
250.00	250.00	       6	59	mm	250.00	99	       788
Frame#	Time	C7			T8			T12			R.AA			R.AC			R.Scapula			R.HeadHum			R.Hum			R.Epi.Med			R.Epi.Lat			R.Ulna			R.Wrist.Uln			R.Wrist.Rad			R.Hand			L.AA			L.AC			L.Scapula			L.HeadHum			L.Hum			L.Epi.Med			L.Epi.Lat			L.Ulna			L.Wrist.Uln			L.Wrist.Rad			L.Hand			Tete.H			Tete.D			Tete.G			Sacral			R.EIAS			LEIAS			R.Crete			L.Crete			R.GT			R.Hip			R.Knee.Med			R.Knee.Lat			R.TTA			R.Fibula			R.Ankle.Med			R.Ankle.Lat			R.Calca			R.Foot.Med			R.Foot.Lat			L.GT			L.Hip			L.Knee.Med			L.Knee.Lat			L.TTA			L.Fibula			L.Ankle.Med			L.Ankle.Lat			L.Calca			L.Foot.Med			L.Foot.Lat			StartG			StartD			StartAvt			StartArr			
		X1	Y1	Z1	X2	Y2	Z2	X3	Y3	Z3	X4	Y4	Z4	X5	Y5	Z5	X6	Y6	Z6	X7	Y7	Z7	X8	Y8	Z8	X9	Y9	Z9	X10	Y10	Z10	X11	Y11	Z11	X12	Y12	Z12	X13	Y13	Z13	X14	Y14	Z14	X15	Y15	Z15	X16	Y16	Z16	X17	Y17	Z17	X18	Y18	Z18	X19	Y19	Z19	X20	Y20	Z20	X21	Y21	Z21	X22	Y22	Z22	X23	Y23	Z23	X24	Y24	Z24	X25	Y25	Z25	X26	Y26	Z26	X27	Y27	Z27	X28	Y28	Z28	X29	Y29	Z29	X30	Y30	Z30	X31	Y31	Z31	X32	Y32	Z32	X33	Y33	Z33	X34	Y34	Z34	X35	Y35	Z35	X36	Y36	Z36	X37	Y37	Z37	X38	Y38	Z38	X39	Y39	Z39	X40	Y40	Z40	X41	Y41	Z41	X42	Y42	Z42	X43	Y43	Z43	X44	Y44	Z44	X45	Y45	Z45	X46	Y46	Z46	X47	Y47	Z47	X48	Y48	Z48	X49	Y49	Z49	X50	Y50	Z50	X51	Y51	Z51	X52	Y52	Z52	X53	Y53	Z53	X54	Y54	Z54	X55	Y55	Z55	X56	Y56	Z56	X57	Y57	Z57	X58	Y58	Z58	X59	Y59	Z59	

99	0.392	189.33382	71.25433	713.48639	-41.20829	66.21752	752.71332	-178.86958	61.48981	715.84088	142.85678	-33.77151	749.07465	155.03777	-24.65699	598.02979	175.75026	-63.24246	678.19641	147.40057	-150.94710	624.20367	63.34710	-181.25690	497.75296	-19.11077	-113.12488	411.66812	57.10289	-187.09108	407.13434	17.52401	-200.29225	262.61243	-50.37473	-201.41371	130.20847	-4.05000	-164.80850	119.88804	-33.36816	-217.78456	96.51398	132.62437	187.28618	754.32495	148.90469	174.96184	601.78528	168.16148	221.06325	665.87189	137.14104	305.05569	606.06049	25.45959	332.36130	518.56177	-12.76144	275.88254	410.22821	58.74390	345.17731	411.70029	-29.50141	354.79410	296.23178	-63.06914	356.65176	128.24950	-14.38968	318.76480	105.90301	-33.63905	370.24924	92.90577	433.30838	82.46484	601.19678	388.48495	73.10184	496.38696	378.12482	80.08807	703.93073	-357.32071	75.73858	643.01422	-195.55771	2.34513	486.02121	-181.19966	156.13248	501.30984	-230.16861	-75.76817	592.51593	-213.57724	216.17940	613.66827	-350.94775	-95.72669	514.42041	-233.64259	-40.42147	322.71387	-388.41132	42.43622	98.47216	-367.54608	-76.68237	97.56287	-451.86850	-10.68738	57.23712	-470.67706	-91.32941	93.07801	-738.61060	12.25508	194.72824	-751.52448	-76.14397	202.27509	-782.51593	-36.50306	271.32242	-761.58307	-12.28988	57.17234	-776.13483	-69.69231	57.08186	-300.62451	260.19370	558.87927	-231.09308	274.21149	401.64206	-131.86530	127.11278	204.67603	-99.09415	247.32826	193.78003	-156.32257	182.47740	126.84332	-236.42581	262.80508	191.66455	-474.53619	149.56425	197.18996	-497.88910	239.87086	205.62395	-523.45819	198.93936	272.36237	-493.30807	141.31659	52.42339	-501.53867	216.07491	48.29835	-596.85590	266.54178	25.61265	-930.76910	-121.67076	33.41995	-521.64740	70.83947	46.18398	-1120.44617	77.14233	55.97081	
100	0.396	189.70035	71.26212	713.22900	-40.73189	66.29131	752.99139	-178.49686	61.59381	716.42670	143.35484	-33.77361	748.92041	155.27274	-24.71087	597.90283	176.09419	-63.21906	677.97583	147.68576	-150.91562	624.04700	63.54511	-181.28334	497.72592	-18.96500	-113.23524	411.61215	57.25422	-187.12030	407.09164	17.58495	-200.33864	262.61356	-50.36684	-201.45126	130.21469	-4.08879	-164.81305	119.88848	-33.39037	-217.80911	96.52867	133.12564	187.29346	754.17975	149.22104	174.93765	601.72168	168.51790	221.02853	665.69702	137.45245	305.01016	605.90106	25.62507	332.33917	518.49042	-12.62412	275.90500	410.23688	58.86568	345.20352	411.65488	-29.47687	354.81137	296.21487	-63.08432	356.65790	128.25571	-14.41548	318.78473	105.91383	-33.67756	370.25320	92.89843	433.43192	82.41164	600.58514	388.52109	72.98849	495.83554	378.36169	80.08219	703.38538	-357.13248	75.95296	643.93671	-195.74280	2.44334	486.70270	-181.18794	156.12573	501.90598	-230.22034	-75.72776	593.47107	-213.28725	216.21996	614.21777	-351.06290	-95.73154	515.51294	-233.77098	-40.37688	323.77933	-388.28546	42.44811	99.38548	-367.52036	-76.63408	98.53515	-451.82196	-10.63880	58.01268	-470.65869	-91.26765	93.81256	-738.87714	12.43122	194.86089	-751.81830	-75.97007	202.40350	-782.82697	-36.24257	271.36725	-761.57660	-12.27084	57.16154	-776.19299	-69.63689	57.20072	-300.43021	260.33218	559.59875	-231.09361	274.21756	402.30988	-132.06252	126.96546	205.29993	-99.30198	247.11163	194.31143	-156.53764	182.31236	127.20944	-236.61647	262.67096	192.00122	-474.78461	149.52988	197.26717	-498.12683	239.92531	205.73306	-523.80054	198.97009	272.35010	-493.40366	141.31517	52.49153	-501.55692	216.06532	48.29806	-596.85547	266.54303	25.61263	-930.76440	-121.67069	33.42091	-521.67786	70.80463	46.19186	-1120.44055	77.14508	55.96083	
101	0.400	190.06674	71.25928	712.96930	-40.25903	66.37556	753.27850	-178.12933	61.69983	717.03033	143.85139	-33.77977	748.76154	155.51804	-24.76135	597.78644	176.42699	-63.19547	677.74628	147.96634	-150.89308	623.88550	63.73541	-181.31238	497.69150	-18.80042	-113.30929	411.50275	57.39233	-187.14893	407.04642	17.63893	-200.38382	262.61609	-50.36410	-201.48962	130.21918	-4.13896	-164.81903	119.89095	-33.42522	-217.84003	96.54967	133.62340	187.29204	754.02899	149.48735	174.89294	601.61719	168.86330	220.99327	665.51593	137.76704	304.96143	605.74030	25.77691	332.30328	518.41870	-12.46815	275.92105	410.23999	58.97746	345.24524	411.61884	-29.45300	354.82773	296.19791	-63.09709	356.66397	128.25954	-14.44181	318.80539	105.92334	-33.71228	370.25958	92.89057	433.54883	82.35691	599.96661	388.55713	72.87464	495.27905	378.59909	80.07761	702.83710	-356.94095	76.17402	644.87494	-195.93987	2.53141	487.39838	-181.17679	156.11946	502.50845	-230.26166	-75.67619	594.41730	-213.00551	216.26668	614.77972	-351.17816	-95.73385	516.62506	-233.90602	-40.32305	324.86456	-388.16580	42.45511	100.32002	-367.48444	-76.57982	99.52149	-451.78342	-10.59156	58.79307	-470.63757	-91.20345	94.55815	-739.13007	12.60267	194.98372	-752.11902	-75.78493	202.54124	-783.13904	-35.97162	271.41702	-761.56854	-12.24774	57.14697	-776.25293	-69.58719	57.31730	-300.23767	260.47736	560.32886	-231.09851	274.23004	402.99146	-132.27397	126.82378	205.92421	-99.51167	246.89749	194.86156	-156.76936	182.14310	127.58329	-236.82094	262.52942	192.35309	-475.03006	149.49409	197.34067	-498.37903	239.98431	205.84996	-524.14197	199.00456	272.33221	-493.50781	141.31104	52.56374	-501.57892	216.05746	48.30129	-596.85504	266.54395	25.61266	-930.75891	-121.67007	33.42048	-521.70630	70.76888	46.20562	-1120.43518	77.14780	55.95182	
102	0.404	190.43250	71.24450	712.70563	-39.78900	66.46699	753.57343	-177.76648	61.80653	717.65106	144.34439	-33.79076	748.59821	155.76784	-24.80653	597.67535	176.74867	-63.17287	677.51007	148.24475	-150.87955	623.72028	63.92061	-181.34377	497.64874	-18.62041	-113.34840	411.34470	57.51836	-187.17831	406.99884	17.68605	-200.42688	262.61908	-50.36720	-201.52843	130.22145	-4.20143	-164.82657	119.89610	-33.47254	-217.87788	96.57800	134.11801	187.28117	753.87177	149.69826	174.82465	601.46747	169.19814	220.95764	665.32697	138.08392	304.90851	605.57806	25.91889	332.25681	518.34631	-12.29385	275.93292	410.23682	59.08049	345.30228	411.59137	-29.42859	354.84427	296.18008	-63.10657	356.66953	128.26019	-14.46807	318.82623	105.93031	-33.74249	370.26788	92.88201	433.66049	82.30155	599.34277	388.59399	72.76266	494.71759	378.83420	80.07373	702.28644	-356.74655	76.40059	645.82910	-196.14848	2.60101	488.11118	-181.16795	156.11284	503.11621	-230.29425	-75.61417	595.35529	-212.73454	216.31931	615.35632	-351.29462	-95.73000	517.75378	-234.04654	-40.25996	325.96899	-388.05542	42.45726	101.27733	-367.43866	-76.51998	100.52152	-451.75089	-10.54542	59.57448	-470.61627	-91.13599	95.31519	-739.36639	12.76651	195.09364	-752.42249	-75.59258	202.68742	-783.45526	-35.69429	271.47263	-761.55951	-12.21984	57.12868	-776.31195	-69.54362	57.42852	-300.04507	260.62708	561.06952	-231.10527	274.24622	403.68793	-132.50270	126.68919	206.54610	-99.72047	246.68402	195.42979	-157.01471	181.96437	127.97036	-237.03877	262.37778	192.72037	-475.27347	149.45699	197.41028	-498.64456	240.04521	205.96962	-524.47980	199.04207	272.30841	-493.61975	141.30345	52.63671	-501.60425	216.05298	48.30828	-596.85461	266.54443	25.61274	-930.75299	-121.66888	33.41877	-521.73297	70.73331	46.22537	-1120.43066	77.15024	55.94432	
103	0.408	190.79713	71.21694	712.43671	-39.32038	66.56192	753.87463	-177.40654	61.91253	718.28662	144.83211	-33.80766	748.43066	156.01653	-24.84506	597.56342	177.05974	-63.15289	677.26990	148.52335	-150.87386	623.55206	64.10342	-181.37738	497.59695	-18.43094	-113.35633	411.14923	57.63355	-187.20970	406.94965	17.72675	-200.46715	262.62186	-50.37654	-201.56705	130.22128	-4.27699	-164.83586	119.90431	-33.53146	-217.92282	96.61424	134.61018	187.26047	753.70776	149.85008	174.72966	601.26953	169.52361	220.92154	665.12878	138.40331	304.85022	605.41437	26.05590	332.20407	518.27289	-12.10324	275.94257	410.22714	59.17649	345.37354	411.57126	-29.40261	354.86197	296.16083	-63.11238	356.67441	128.25681	-14.49388	318.84686	105.93400	-33.76794	370.27759	92.87280	433.76862	82.24603	598.71582	388.63193	72.65466	494.15207	379.06461	80.07017	701.73395	-356.54932	76.63131	646.79913	-196.36668	2.64727	488.84280	-181.16255	156.10635	503.72964	-230.31952	-75.54135	596.28558	-212.47522	216.37697	615.94965	-351.41309	-95.71723	518.89532	-234.19165	-40.18879	327.08972	-387.95706	42.45424	102.25909	-367.38388	-76.45620	101.53474	-451.72165	-10.49942	60.35368	-470.59702	-91.06398	96.08390	-739.58478	12.92080	195.18858	-752.72388	-75.39777	202.84039	-783.77820	-35.41441	271.53470	-761.55029	-12.18644	57.10674	-776.36798	-69.50632	57.53181	-299.85022	260.77896	561.82104	-231.11124	274.26334	404.39911	-132.74985	126.56190	207.16383	-99.92690	246.46895	196.01433	-157.26970	181.76985	128.37350	-237.26773	262.21310	193.10010	-475.51639	149.41902	197.47641	-498.92084	240.10493	206.08635	-524.81305	199.08139	272.27924	-493.73785	141.29140	52.70718	-501.63275	216.05347	48.31934	-596.85425	266.54453	25.61283	-930.74707	-121.66712	33.41597	-521.75824	70.69901	46.25046	-1120.42712	77.15233	55.93865	
104	0.412	191.16020	71.17657	712.16138	-38.85133	66.65704	754.18011	-177.04680	62.01689	718.93372	145.31326	-33.83171	748.25916	156.25906	-24.87606	597.44440	177.36137	-63.13756	677.02856	148.80354	-150.87344	623.38147	64.28616	-181.41306	497.53580	-18.24003	-113.33926	410.93286	57.73907	-187.24413	406.89972	17.76175	-200.50397	262.62396	-50.39227	-201.60460	130.21878	-4.36604	-164.84715	119.91570	-33.60051	-217.97432	96.65838	135.10086	187.22980	753.53723	149.94127	174.60501	601.02155	169.84135	220.88423	664.92053	138.72635	304.78543	605.24982	26.19337	332.14996	518.19800	-11.90046	275.95181	410.21152	59.26751	345.45688	411.55707	-29.37438	354.88153	296.13977	-63.11465	356.67856	128.24881	-14.51923	318.86703	105.93423	-33.78868	370.28812	92.86316	433.87518	82.18982	598.08862	388.67102	72.55182	493.58429	379.28827	80.06658	701.17999	-356.34888	76.86510	647.78442	-196.59140	2.66987	489.59332	-181.16125	156.10146	504.35013	-230.33810	-75.45762	597.20898	-212.22662	216.43852	616.56067	-351.53397	-95.69365	520.04541	-234.34094	-40.11074	328.22287	-387.87366	42.44525	103.26780	-367.32108	-76.39120	102.56109	-451.69208	-10.45262	61.12793	-470.58160	-90.98654	96.86396	-739.78595	13.06499	195.26788	-753.01807	-75.20554	202.99780	-784.10913	-35.13528	271.60321	-761.54150	-12.14705	57.08127	-776.41943	-69.47500	57.62536	-299.65152	260.93085	562.58374	-231.11424	274.27936	405.12369	-133.01440	126.44188	207.77609	-100.13085	246.25029	196.61331	-157.52968	181.55394	128.79312	-237.50439	262.03314	193.48721	-475.76071	149.38148	197.53951	-499.20416	240.16034	206.19426	-525.14258	199.12120	272.24628	-493.86026	141.27353	52.77257	-501.66449	216.06039	48.33495	-596.85400	266.54428	25.61295	-930.74133	-121.66500	33.41248	-521.78223	70.66695	46.27945	-1120.42480	77.15417	55.93493	
